<svg width="12" height="13" viewBox="0 0 12 13" fill="none" xmlns="http://www.w3.org/2000/svg">
<path d="M5.5 5.5V6.5H4.5V7.5H3.5V6.5H2.9C2.7 7.1 2.15 7.5 1.5 7.5C0.65 7.5 0 6.85 0 6C0 5.15 0.65 4.5 1.5 4.5C2.15 4.5 2.7 4.9 2.9 5.5H5.5ZM1.5 5.5C1.2 5.5 1 5.7 1 6C1 6.3 1.2 6.5 1.5 6.5C1.8 6.5 2 6.3 2 6C2 5.7 1.8 5.5 1.5 5.5ZM8 7.5C9.35 7.5 12 8.15 12 9.5V10.5H4V9.5C4 8.15 6.65 7.5 8 7.5ZM8 6.5C6.9 6.5 6 5.6 6 4.5C6 3.4 6.9 2.5 8 2.5C9.1 2.5 10 3.4 10 4.5C10 5.6 9.1 6.5 8 6.5Z" fill="#13FF75"/>
</svg>
