<svg width="25" height="24" viewBox="0 0 25 24" fill="none" xmlns="http://www.w3.org/2000/svg">
<path d="M21.667 5C20.557 4.65 19.337 4.5 18.167 4.5C16.217 4.5 14.117 4.9 12.667 6C11.217 4.9 9.11699 4.5 7.16699 4.5C5.21699 4.5 3.11699 4.9 1.66699 6V20.65C1.66699 20.9 1.91699 21.15 2.16699 21.15C2.26699 21.15 2.31699 21.1 2.41699 21.1C3.76699 20.45 5.71699 20 7.16699 20C9.11699 20 11.217 20.4 12.667 21.5C14.017 20.65 16.467 20 18.167 20C19.817 20 21.517 20.3 22.917 21.05C23.017 21.1 23.067 21.1 23.167 21.1C23.417 21.1 23.667 20.85 23.667 20.6V6C23.067 5.55 22.417 5.25 21.667 5ZM21.667 18.5C20.567 18.15 19.367 18 18.167 18C16.467 18 14.017 18.65 12.667 19.5V8C14.017 7.15 16.467 6.5 18.167 6.5C19.367 6.5 20.567 6.65 21.667 7V18.5Z" fill="white"/>
</svg>
