<svg width="16" height="16" viewBox="0 0 16 16" fill="none" xmlns="http://www.w3.org/2000/svg">
<path d="M13.333 7.99967C13.333 9.41416 12.7711 10.7707 11.7709 11.7709C10.7707 12.7711 9.41416 13.333 7.99967 13.333C6.58519 13.333 5.22863 12.7711 4.22844 11.7709C3.22824 10.7707 2.66634 9.41416 2.66634 7.99967C2.66634 6.58519 3.22824 5.22863 4.22844 4.22844C5.22863 3.22824 6.58519 2.66634 7.99967 2.66634C8.50634 2.66634 8.99967 2.73967 9.46634 2.87301L10.513 1.82634C9.73968 1.50634 8.89301 1.33301 7.99967 1.33301C7.1242 1.33301 6.25729 1.50545 5.44845 1.84048C4.63961 2.17551 3.90469 2.66657 3.28563 3.28563C2.03539 4.53587 1.33301 6.23156 1.33301 7.99967C1.33301 9.76779 2.03539 11.4635 3.28563 12.7137C3.90469 13.3328 4.63961 13.8238 5.44845 14.1589C6.25729 14.4939 7.1242 14.6663 7.99967 14.6663C9.76779 14.6663 11.4635 13.964 12.7137 12.7137C13.964 11.4635 14.6663 9.76779 14.6663 7.99967M5.27301 6.71967L4.33301 7.66634L7.33301 10.6663L13.9997 3.99967L13.0597 3.05301L7.33301 8.77967L5.27301 6.71967Z" fill="#13FF75"/>
</svg>
