<svg width="16" height="16" viewBox="0 0 16 16" fill="none" xmlns="http://www.w3.org/2000/svg">
<path d="M7.99674 1.33008C7.12127 1.33008 6.25436 1.50252 5.44552 1.83755C4.63668 2.17258 3.90176 2.66364 3.2827 3.2827C2.03246 4.53294 1.33008 6.22863 1.33008 7.99674C1.33008 9.76485 2.03246 11.4605 3.2827 12.7108C3.90176 13.3298 4.63668 13.8209 5.44552 14.1559C6.25436 14.491 7.12127 14.6634 7.99674 14.6634C9.76485 14.6634 11.4605 13.961 12.7108 12.7108C13.961 11.4605 14.6634 9.76485 14.6634 7.99674C14.6634 7.12127 14.491 6.25436 14.1559 5.44552C13.8209 4.63668 13.3298 3.90176 12.7108 3.2827C12.0917 2.66364 11.3568 2.17258 10.548 1.83755C9.73913 1.50252 8.87222 1.33008 7.99674 1.33008ZM10.7967 10.7967L7.33008 8.66341V4.66341H8.33008V8.13008L11.3301 9.93008L10.7967 10.7967Z" fill="#FF5467"/>
</svg>
