<svg width="20" height="20" viewBox="0 0 20 20" fill="none" xmlns="http://www.w3.org/2000/svg">
<path d="M15.8337 17.4997H6.66699V5.83301H15.8337M15.8337 4.16634H6.66699C6.22496 4.16634 5.80104 4.34194 5.48848 4.6545C5.17592 4.96706 5.00033 5.39098 5.00033 5.83301V17.4997C5.00033 17.9417 5.17592 18.3656 5.48848 18.6782C5.80104 18.9907 6.22496 19.1663 6.66699 19.1663H15.8337C16.2757 19.1663 16.6996 18.9907 17.0122 18.6782C17.3247 18.3656 17.5003 17.9417 17.5003 17.4997V5.83301C17.5003 5.39098 17.3247 4.96706 17.0122 4.6545C16.6996 4.34194 16.2757 4.16634 15.8337 4.16634ZM13.3337 0.833008H3.33366C2.89163 0.833008 2.46771 1.0086 2.15515 1.32116C1.84259 1.63372 1.66699 2.05765 1.66699 2.49967V14.1663H3.33366V2.49967H13.3337V0.833008Z" fill="#13FF75"/>
</svg>
