<svg width="20" height="20" viewBox="0 0 20 20" fill="none" xmlns="http://www.w3.org/2000/svg">
<rect width="20" height="20" rx="10" fill="url(#paint0_linear_87_10218)"/>
<path d="M13.2328 12.3828L16.3955 10.5787C16.5631 10.4829 16.6667 10.3052 16.6667 10.1145V6.50635C16.6667 6.31562 16.5631 6.13791 16.3955 6.04208L13.2328 4.23803C13.0652 4.1422 12.857 4.14313 12.6903 4.23803L9.52772 6.04208C9.36007 6.13791 9.25647 6.31562 9.25647 6.50635V12.954L7.03849 14.2185L4.82051 12.954V10.4243L7.03849 9.15986L8.50113 9.99443V8.29738L7.30973 7.61725C7.2278 7.57073 7.13361 7.54561 7.03849 7.54561C6.94337 7.54561 6.84918 7.57073 6.76725 7.61725L3.60462 9.4213C3.43697 9.51713 3.33337 9.69484 3.33337 9.88557V13.4937C3.33337 13.6844 3.43697 13.8621 3.60462 13.9579L6.76725 15.762C6.93489 15.8569 7.14209 15.8569 7.30973 15.762L10.4724 13.9579C10.64 13.8621 10.7436 13.6844 10.7436 13.4937V7.04505L10.7832 7.02272L12.9606 5.78064L15.1786 7.04505V9.57482L12.9606 10.8392L11.4999 10.0065V11.7036L12.6894 12.3818C12.857 12.4767 13.0652 12.4767 13.2319 12.3818L13.2328 12.3828Z" fill="white"/>
<defs>
<linearGradient id="paint0_linear_87_10218" x1="22.6667" y1="5.75" x2="2.80484" y2="23.405" gradientUnits="userSpaceOnUse">
<stop stop-color="#7B3FE4"/>
<stop offset="1" stop-color="#A626C2"/>
</linearGradient>
</defs>
</svg>
