<svg width="18" height="20" viewBox="0 0 18 20" fill="none" xmlns="http://www.w3.org/2000/svg">
<path d="M0.672974 6.0796V13.9204C0.672974 14.421 0.940516 14.8839 1.37384 15.1334L8.16415 19.0546C8.59747 19.3041 9.13091 19.3041 9.56423 19.0546L16.3546 15.1334C16.7879 14.8839 17.0554 14.421 17.0554 13.9204V6.0796C17.0554 5.57898 16.7879 5.11612 16.3546 4.86663L9.56423 0.945416C9.13091 0.695929 8.59747 0.695929 8.16415 0.945416L1.37219 4.86663C0.938874 5.11612 0.672974 5.57898 0.672974 6.0796Z" fill="#213147"/>
<path d="M10.3455 11.5207L9.37712 14.1764C9.35086 14.2503 9.35086 14.3307 9.37712 14.4046L11.0431 18.9741L12.9701 17.8613L10.6574 11.5207C10.6049 11.3746 10.398 11.3746 10.3455 11.5207Z" fill="#12AAFF"/>
<path d="M12.2873 7.05439C12.2347 6.9083 12.0279 6.9083 11.9754 7.05439L11.007 9.71011C10.9807 9.78397 10.9807 9.8644 11.007 9.93826L13.7366 17.4196L15.6635 16.3067L12.2873 7.05439Z" fill="#12AAFF"/>
<path d="M8.86336 1.23923C8.91096 1.23923 8.95856 1.25236 9.00123 1.27534L16.3496 5.51826C16.435 5.5675 16.4875 5.65942 16.4875 5.75626V14.2405C16.4875 14.3389 16.435 14.4292 16.3496 14.4785L9.00123 18.7214C8.9602 18.746 8.91096 18.7575 8.86336 18.7575C8.81576 18.7575 8.76816 18.7444 8.72548 18.7214L1.3771 14.4817C1.29175 14.4325 1.23923 14.3406 1.23923 14.2437V5.7579C1.23923 5.65942 1.29175 5.56914 1.3771 5.5199L8.72548 1.27698C8.76816 1.25236 8.81576 1.23923 8.86336 1.23923ZM8.86336 0C8.60238 0 8.33976 0.0672958 8.10505 0.203529L0.758309 4.44481C0.28888 4.71563 0 5.21625 0 5.7579V14.2421C0 14.7838 0.28888 15.2844 0.758309 15.5552L8.10669 19.7981C8.3414 19.9327 8.60238 20.0016 8.865 20.0016C9.12597 20.0016 9.38859 19.9343 9.62331 19.7981L16.9717 15.5552C17.4411 15.2844 17.73 14.7838 17.73 14.2421V5.7579C17.73 5.21625 17.4411 4.71563 16.9717 4.44481L9.62167 0.203529C9.38695 0.0672958 9.12433 0 8.86336 0Z" fill="#9DCCED"/>
<path d="M4.0033 17.4291L4.67954 15.5776L6.04023 16.7085L4.76817 17.8706L4.0033 17.4291Z" fill="#213147"/>
<path d="M8.24453 5.15137H6.38159C6.24207 5.15137 6.11733 5.23836 6.06973 5.36967L2.07629 16.3176L4.00325 17.4304L8.40046 5.37459C8.4415 5.26626 8.36107 5.15137 8.24453 5.15137Z" fill="white"/>
<path d="M11.5043 5.15137H9.64134C9.50182 5.15137 9.37708 5.23836 9.32948 5.36967L4.76978 17.8703L6.69673 18.9831L11.6602 5.37459C11.6996 5.26626 11.6192 5.15137 11.5043 5.15137Z" fill="white"/>
</svg>
