<svg width="20" height="20" viewBox="0 0 20 20" fill="none" xmlns="http://www.w3.org/2000/svg">
<g clip-path="url(#clip0_7_15111)">
<path d="M1.80762 6.08009V13.9209C1.80762 14.4215 2.07516 14.8844 2.50848 15.1338L9.2988 19.0551C9.73212 19.3045 10.2656 19.3045 10.6989 19.0551L17.4892 15.1338C17.9225 14.8844 18.1901 14.4215 18.1901 13.9209V6.08009C18.1901 5.57947 17.9225 5.11661 17.4892 4.86712L10.6989 0.945904C10.2656 0.696417 9.73212 0.696417 9.2988 0.945904L2.50684 4.86712C2.07352 5.11661 1.80762 5.57947 1.80762 6.08009Z" fill="#213147"/>
<path d="M11.4803 11.5207L10.5119 14.1764C10.4856 14.2503 10.4856 14.3307 10.5119 14.4046L12.1779 18.9741L14.1048 17.8613L11.7921 11.5207C11.7396 11.3746 11.5328 11.3746 11.4803 11.5207Z" fill="#12AAFF"/>
<path d="M13.423 7.0539C13.3705 6.90782 13.1637 6.90782 13.1111 7.0539L12.1427 9.70962C12.1165 9.78348 12.1165 9.86391 12.1427 9.93777L14.8723 17.4191L16.7993 16.3063L13.423 7.0539Z" fill="#12AAFF"/>
<path d="M9.99812 1.23923C10.0457 1.23923 10.0933 1.25236 10.136 1.27534L17.4844 5.51826C17.5697 5.5675 17.6223 5.65942 17.6223 5.75626V14.2405C17.6223 14.3389 17.5697 14.4292 17.4844 14.4785L10.136 18.7214C10.095 18.746 10.0457 18.7575 9.99812 18.7575C9.95052 18.7575 9.90292 18.7444 9.86025 18.7214L2.51187 14.4817C2.42652 14.4325 2.37399 14.3406 2.37399 14.2437V5.7579C2.37399 5.65942 2.42652 5.56914 2.51187 5.5199L9.86025 1.27698C9.90292 1.25236 9.95052 1.23923 9.99812 1.23923ZM9.99812 0C9.73715 0 9.47453 0.0672958 9.23981 0.203529L1.89308 4.44481C1.42365 4.71563 1.13477 5.21625 1.13477 5.7579V14.2421C1.13477 14.7838 1.42365 15.2844 1.89308 15.5552L9.24146 19.7981C9.47617 19.9327 9.73715 20.0016 9.99976 20.0016C10.2607 20.0016 10.5234 19.9343 10.7581 19.7981L18.1065 15.5552C18.5759 15.2844 18.8648 14.7838 18.8648 14.2421V5.7579C18.8648 5.21625 18.5759 4.71563 18.1065 4.44481L10.7564 0.203529C10.5217 0.0672958 10.2591 0 9.99812 0Z" fill="#9DCCED"/>
<path d="M5.1377 17.4296L5.81394 15.5781L7.17463 16.709L5.90257 17.8711L5.1377 17.4296Z" fill="#213147"/>
<path d="M9.37918 5.15137H7.51623C7.37672 5.15137 7.25197 5.23836 7.20437 5.36967L3.21094 16.3176L5.1379 17.4304L9.53511 5.37459C9.57614 5.26626 9.49571 5.15137 9.37918 5.15137Z" fill="white"/>
<path d="M12.6388 5.15137H10.7759C10.6363 5.15137 10.5116 5.23836 10.464 5.36967L5.9043 17.8703L7.83126 18.9831L12.7947 5.37459C12.8341 5.26626 12.7537 5.15137 12.6388 5.15137Z" fill="white"/>
</g>
<defs>
<clipPath id="clip0_7_15111">
<rect width="20" height="20" fill="white"/>
</clipPath>
</defs>
</svg>
