<svg width="134" height="17" viewBox="0 0 134 17" fill="none" xmlns="http://www.w3.org/2000/svg">
<g clip-path="url(#clip0_4_14967)">
<path d="M5.69865 7.54484C6.51338 7.69767 7.2032 7.88786 7.76812 8.11596L7.76868 8.1171C8.33302 8.34522 8.78991 8.69673 9.13933 9.17106C9.48817 9.6454 9.66316 10.2686 9.66316 11.0418C9.66316 11.768 9.46229 12.4207 9.06055 13.0003C8.65882 13.5799 8.1029 14.0338 7.39282 14.3616C6.68275 14.6893 5.87926 14.8535 4.98295 14.8535C4.01687 14.8535 3.16105 14.6746 2.41609 14.3174C1.67113 13.9603 1.08597 13.4684 0.661157 12.8418C0.275735 12.2735 0.0551719 11.635 0.000593906 10.9263C-0.00840862 10.8086 0.0861182 10.709 0.203714 10.7107L2.13364 10.7401C2.2338 10.7412 2.31594 10.8171 2.32945 10.9167C2.40822 11.4929 2.66986 11.9644 3.11492 12.3323C3.60388 12.7365 4.24418 12.9386 5.03585 12.9386C5.69922 12.9386 6.2405 12.792 6.65967 12.4993C7.07885 12.2067 7.28817 11.8031 7.28817 11.2874C7.28817 10.9246 7.17169 10.6377 6.93876 10.4265C6.70582 10.2159 6.38903 10.0518 5.98729 9.93464C5.58556 9.81747 4.97733 9.68275 4.16258 9.5305L4.07538 9.51294C3.30679 9.372 2.64903 9.18182 2.10213 8.94182C1.55466 8.7018 1.11241 8.34746 0.774813 7.87882C0.437218 7.41013 0.268421 6.78976 0.268421 6.01656C0.268421 5.3141 0.457474 4.68127 0.836144 4.11922C1.21425 3.55656 1.74428 3.11791 2.42509 2.80149C3.10592 2.48506 3.87169 2.32715 4.72131 2.32715C5.61762 2.32715 6.41773 2.49131 7.12218 2.81904C7.82607 3.14676 8.37918 3.60639 8.78091 4.19788C9.14158 4.72996 9.35481 5.32032 9.41952 5.97014C9.43135 6.089 9.33681 6.19147 9.2181 6.19031L7.28591 6.17561C7.18801 6.17504 7.10643 6.10315 7.08955 6.00636C7.00346 5.52072 6.76995 5.11997 6.38847 4.8041C5.9631 4.45259 5.40775 4.27713 4.72076 4.27713C4.09226 4.27713 3.58587 4.41185 3.20157 4.68127C2.81728 4.95072 2.62541 5.34298 2.62541 5.85806C2.62541 6.20958 2.73906 6.48466 2.96582 6.6839C3.19256 6.88314 3.50372 7.04164 3.89984 7.15825C4.29538 7.27542 4.88954 7.40445 5.6812 7.54484H5.69865Z" fill="white"/>
<path fill-rule="evenodd" clip-rule="evenodd" d="M19.5359 12.83H19.8394L19.8404 12.8305C19.9516 12.8305 20.0421 12.9212 20.0421 13.0336V14.5391C20.0421 14.651 19.9521 14.7423 19.8404 14.7423H18.2827C17.7407 14.7423 17.3024 14.2995 17.3024 13.7542V13.4541C17.3024 13.2042 16.9751 13.1181 16.8505 13.3337C16.5945 13.7159 16.3142 14.0291 15.9784 14.2733C15.6047 14.5454 15.2309 14.7365 14.7711 14.8107C14.3316 14.882 13.882 14.8569 13.4437 14.7885C12.8701 14.6989 12.3134 14.4947 11.8473 14.1404C11.2261 13.6686 10.9158 13.0194 10.9158 12.1927C10.9158 11.2371 11.2556 10.4995 11.9351 9.97977C12.6147 9.46064 13.6108 9.20105 14.9229 9.20105H16.5407C16.6517 9.20105 16.7423 9.11035 16.7423 8.99796V8.72299C16.7423 7.84387 16.0662 7.2534 15.116 7.2534C14.612 7.2534 14.2291 7.36238 13.9069 7.58087C13.6289 7.76969 13.4488 8.01273 13.3673 8.31109C13.3435 8.39782 13.2631 8.45712 13.1736 8.45712H11.3875C11.2612 8.45712 11.1678 8.34189 11.1887 8.21697C11.3252 7.41142 11.7245 6.77761 12.3865 6.31493C13.1124 5.80721 14.0372 5.5482 15.2207 5.5482C16.4745 5.5482 17.2746 5.83401 17.9541 6.39425C18.6338 6.95446 18.9734 7.77198 18.9734 8.84621V12.2281C18.9734 12.4409 19.0234 12.5943 19.123 12.6885C19.2222 12.7832 19.3603 12.83 19.5359 12.83ZM16.4688 12.1482C16.65 11.8236 16.7412 11.4431 16.7412 11.0061V10.9616C16.7412 10.8498 16.6512 10.7585 16.5396 10.7585H14.8866C14.3356 10.7585 13.9115 10.868 13.6125 11.086C13.314 11.3045 13.1645 11.6142 13.1645 12.0153C13.1645 12.3696 13.2993 12.6525 13.5689 12.8653C13.8378 13.0776 14.1952 13.1837 14.6408 13.1837C15.4076 13.1837 16.0883 12.8288 16.4688 12.1482Z" fill="white"/>
<path d="M26.2836 2.5061H23.9721C22.7524 2.5061 21.7632 3.50405 21.7632 4.73573V5.71492C21.7632 5.82693 21.673 5.91735 21.5626 5.91735H20.2427C20.1318 5.91735 20.0421 6.00833 20.0421 6.11978V7.63803C20.0421 7.75005 20.1323 7.84048 20.2427 7.84048H21.5626C21.6736 7.84048 21.7632 7.93146 21.7632 8.04291V14.651C21.7632 14.7631 21.8534 14.8535 21.9638 14.8535H23.7655C23.8764 14.8535 23.9659 14.7625 23.9659 14.651V8.04291C23.9659 7.93087 24.0561 7.84048 24.1665 7.84048H26.2655C26.3767 7.84048 26.4661 7.74948 26.4661 7.63803V6.11978C26.4661 6.00776 26.3761 5.91735 26.2655 5.91735H24.1665C24.0555 5.91735 23.9659 5.82636 23.9659 5.71492V4.83466C23.9659 4.61063 24.1457 4.42923 24.3676 4.42923H26.2836C26.3946 4.42923 26.4842 4.33825 26.4842 4.22678V2.70855C26.4842 2.59651 26.394 2.5061 26.2836 2.5061Z" fill="white"/>
<path fill-rule="evenodd" clip-rule="evenodd" d="M33.5705 6.08476C34.2572 6.43922 34.799 6.94725 35.1955 7.60824H35.1945C35.5908 8.26979 35.7895 9.03752 35.7895 9.91144C35.7895 10.0296 35.7866 10.1597 35.7809 10.3013C35.778 10.3795 35.7718 10.456 35.7632 10.5308C35.7517 10.6329 35.6637 10.7088 35.5606 10.7088H29.2214C29.1001 10.7088 29.0045 10.8139 29.0183 10.9337C29.0251 10.992 29.0337 11.0502 29.0428 11.1078C29.0698 11.2728 29.1087 11.4361 29.1625 11.5942C29.2128 11.7414 29.2758 11.8841 29.3529 12.0194C29.5487 12.3625 29.8148 12.6279 30.1523 12.8168C30.4899 13.0058 30.8836 13.1 31.3333 13.1C31.878 13.1 32.3335 12.9755 32.7008 12.7278C33.0287 12.5057 33.2575 12.2044 33.3869 11.8225C33.4148 11.7397 33.4921 11.6826 33.5802 11.6826H35.4187C35.5502 11.6826 35.647 11.8054 35.6173 11.9332C35.5028 12.4264 35.2882 12.8802 34.9742 13.2946C34.6073 13.7792 34.1244 14.1599 33.527 14.4373C32.9292 14.7148 32.2511 14.8535 31.4935 14.8535C30.5105 14.8535 29.6552 14.6651 28.9272 14.2867C28.1989 13.9088 27.6399 13.3682 27.249 12.6656C26.8589 11.9635 26.6632 11.1746 26.6632 10.23C26.6632 9.28526 26.8525 8.46158 27.2313 7.75894C27.6101 7.05626 28.1429 6.51343 28.8295 6.12928C29.5161 5.74513 30.2926 5.5482 31.1914 5.5482C32.0903 5.5482 32.8839 5.73027 33.5705 6.08476ZM29.3209 9.1671H33.2908V9.16767C33.4213 9.16767 33.519 9.04665 33.4898 8.91937C33.3799 8.43534 33.1518 8.05174 32.8066 7.76807C32.4045 7.43757 31.8952 7.27203 31.2795 7.27203C30.9008 7.27203 30.5517 7.34851 30.2319 7.50207C29.9127 7.65562 29.6523 7.87709 29.4508 8.16649C29.2946 8.39083 29.1847 8.64197 29.1212 8.91993C29.0927 9.04665 29.1904 9.1671 29.3209 9.1671Z" fill="white"/>
<path d="M42.074 2.56808C42.074 2.27555 42.3183 2.03851 42.6198 2.03851L44.0794 2.03952C44.381 2.03952 44.6253 1.80248 44.6253 1.50996V0.53054C44.6253 0.238018 44.3932 0 44.0917 0H42.3882C42.0866 0 41.8423 0.237026 41.8423 0.529546V1.28325C41.8423 1.57577 41.598 1.81279 41.2964 1.81279H40.5185C40.217 1.81279 39.9727 2.04983 39.9727 2.34233V14.6577C39.9727 14.9502 40.217 15.1872 40.5185 15.1872H41.2964C41.598 15.1872 41.8423 15.4242 41.8423 15.7168V16.4705C41.8423 16.763 42.0866 17 42.3882 17H44.0917C44.3932 17 44.6253 16.762 44.6253 16.4695V15.49C44.6253 15.1975 44.381 14.9605 44.0794 14.9605L42.6198 14.9615C42.3183 14.9615 42.074 14.7245 42.074 14.4319V2.56808Z" fill="white"/>
<path d="M131.898 2.56808C131.898 2.27555 131.654 2.03851 131.352 2.03851L129.892 2.03952C129.591 2.03952 129.347 1.80248 129.347 1.50996V0.53054C129.347 0.238018 129.579 0 129.88 0H131.584C131.885 0 132.13 0.237026 132.13 0.529546V1.28325C132.13 1.57577 132.374 1.81279 132.675 1.81279H133.453C133.755 1.81279 133.999 2.04983 133.999 2.34233V14.6577C133.999 14.9502 133.755 15.1872 133.453 15.1872H132.675C132.374 15.1872 132.13 15.4242 132.13 15.7168V16.4705C132.13 16.763 131.885 17 131.584 17H129.88C129.579 17 129.347 16.762 129.347 16.4695V15.49C129.347 15.1975 129.591 14.9605 129.892 14.9605L131.352 14.9615C131.654 14.9615 131.898 14.7245 131.898 14.4319V2.56808Z" fill="white"/>
<path d="M118.205 14.4459V2.11857H122.731C123.717 2.11857 124.527 2.28881 125.161 2.62928C125.807 2.95801 126.289 3.41001 126.606 3.98528C126.923 4.54882 127.081 5.17693 127.081 5.86961C127.081 6.62099 126.881 7.3078 126.482 7.93004C126.095 8.55227 125.484 9.00428 124.651 9.28604L127.204 14.4459H124.616L122.326 9.58542H120.459V14.4459H118.205ZM120.459 7.93004H122.59C123.342 7.93004 123.894 7.74806 124.246 7.38411C124.598 7.02016 124.774 6.53881 124.774 5.94005C124.774 5.35303 124.598 4.88342 124.246 4.53121C123.905 4.179 123.348 4.00289 122.573 4.00289H120.459V7.93004Z" fill="white"/>
<path d="M108.024 14.4459V2.11857H116.072V3.93245H110.278V7.31367H115.544V9.07472H110.278V12.632H116.072V14.4459H108.024Z" fill="white"/>
<path d="M95.3323 14.4459V2.11857H97.5864L103.38 10.8005V2.11857H105.634V14.4459H103.38L97.5864 5.78155V14.4459H95.3323Z" fill="white"/>
<path d="M82.6403 14.4459V2.11857H84.8945L90.6883 10.8005V2.11857H92.9425V14.4459H90.6883L84.8945 5.78155V14.4459H82.6403Z" fill="white"/>
<path d="M69.4998 14.4459L74.0081 2.11857H76.544L81.0523 14.4459H78.6573L77.6711 11.593H72.8635L71.8597 14.4459H69.4998ZM73.4798 9.83197H77.0548L75.2585 4.70731L73.4798 9.83197Z" fill="white"/>
<path d="M63.0453 14.6572C61.8008 14.6572 60.7325 14.3931 59.8402 13.8648C58.9479 13.3247 58.2611 12.5792 57.7798 11.6282C57.2984 10.6655 57.0577 9.55605 57.0577 8.29984C57.0577 7.04362 57.2984 5.93416 57.7798 4.97145C58.2611 4.00875 58.9479 3.25736 59.8402 2.71731C60.7325 2.17725 61.8008 1.90723 63.0453 1.90723C64.5246 1.90723 65.7338 2.27705 66.6731 3.01669C67.624 3.74459 68.2169 4.77187 68.4517 6.09852H65.9686C65.816 5.42933 65.4873 4.90688 64.9825 4.53119C64.4894 4.14376 63.8319 3.95004 63.0101 3.95004C61.8713 3.95004 60.979 4.33747 60.3333 5.11234C59.6876 5.8872 59.3647 6.9497 59.3647 8.29984C59.3647 9.64998 59.6876 10.7125 60.3333 11.4873C60.979 12.2505 61.8713 12.632 63.0101 12.632C63.8319 12.632 64.4894 12.4559 64.9825 12.1037C65.4873 11.7398 65.816 11.2408 65.9686 10.6068H68.4517C68.2169 11.8748 67.624 12.8668 66.6731 13.583C65.7338 14.2991 64.5246 14.6572 63.0453 14.6572Z" fill="white"/>
<path d="M51.1638 14.6572C50.2598 14.6572 49.4615 14.5046 48.7688 14.1994C48.0761 13.8824 47.5302 13.4362 47.131 12.861C46.7318 12.2739 46.5264 11.5636 46.5146 10.7301H48.8921C48.9155 11.3054 49.121 11.7926 49.5084 12.1918C49.9076 12.5792 50.4535 12.7729 51.1462 12.7729C51.745 12.7729 52.2205 12.632 52.5727 12.3503C52.9249 12.0567 53.101 11.6693 53.101 11.188C53.101 10.6831 52.9425 10.2898 52.6255 10.0081C52.3203 9.72629 51.9093 9.49735 51.3928 9.32125C50.8762 9.14514 50.3244 8.9573 49.7374 8.75771C48.7864 8.42898 48.0585 8.00633 47.5537 7.48975C47.0606 6.97318 46.814 6.28637 46.814 5.42933C46.8023 4.70143 46.9725 4.07919 47.3247 3.56261C47.6887 3.0343 48.1818 2.62926 48.804 2.34749C49.4263 2.05398 50.1424 1.90723 50.9525 1.90723C51.7743 1.90723 52.4964 2.05398 53.1186 2.34749C53.7526 2.641 54.2457 3.05191 54.5979 3.58022C54.9618 4.10854 55.1555 4.73665 55.179 5.46455H52.7664C52.7546 5.03015 52.5844 4.64859 52.2557 4.31986C51.9387 3.97939 51.4926 3.80916 50.9173 3.80916C50.4242 3.79742 50.0074 3.92069 49.6669 4.17898C49.3382 4.42553 49.1738 4.78948 49.1738 5.27083C49.1738 5.68174 49.303 6.01047 49.5613 6.25702C49.8196 6.49183 50.1718 6.69141 50.6179 6.85578C51.064 7.02014 51.5747 7.19625 52.15 7.38409C52.7605 7.59542 53.3182 7.84196 53.823 8.12373C54.3278 8.4055 54.7329 8.78119 55.0381 9.2508C55.3434 9.70868 55.496 10.3016 55.496 11.0295C55.496 11.6752 55.3316 12.2739 55.0029 12.8257C54.6742 13.3775 54.187 13.8237 53.5412 14.1641C52.8955 14.4929 52.1031 14.6572 51.1638 14.6572Z" fill="white"/>
</g>
<defs>
<clipPath id="clip0_4_14967">
<rect width="133.999" height="17" fill="white"/>
</clipPath>
</defs>
</svg>
