<svg width="347" height="44" viewBox="0 0 347 44" fill="none" xmlns="http://www.w3.org/2000/svg">
<g clip-path="url(#clip0_6_14970)">
<path d="M14.7494 19.5271C16.8582 19.9226 18.6436 20.4149 20.1057 21.0053L20.1072 21.0082C21.5678 21.5986 22.7504 22.5084 23.6547 23.7361C24.5576 24.9638 25.0105 26.5768 25.0105 28.578C25.0105 30.4577 24.4906 32.1468 23.4508 33.647C22.4111 35.1472 20.9722 36.3222 19.1344 37.1704C17.2965 38.0186 15.2169 38.4435 12.897 38.4435C10.3966 38.4435 8.18155 37.9806 6.25342 37.0561C4.32528 36.1317 2.81073 34.8586 1.71123 33.2368C0.713666 31.7659 0.142798 30.1134 0.00153717 28.2791C-0.0217635 27.9744 0.222894 27.7166 0.527259 27.721L5.52237 27.7972C5.7816 27.8001 5.99419 27.9964 6.02916 28.2543C6.23304 29.7456 6.91022 30.966 8.06214 31.9183C9.32768 32.9643 10.9849 33.4873 13.034 33.4873C14.7509 33.4873 16.1519 33.1079 17.2368 32.3505C18.3217 31.5931 18.8635 30.5485 18.8635 29.2138C18.8635 28.2747 18.562 27.532 17.9591 26.9856C17.3562 26.4405 16.5363 26.0157 15.4965 25.7124C14.4567 25.4092 12.8825 25.0605 10.7737 24.6664L10.5481 24.621C8.55874 24.2562 6.85631 23.764 5.44081 23.1428C4.02383 22.5216 2.87918 21.6045 2.0054 20.3915C1.13162 19.1784 0.694737 17.5727 0.694737 15.5715C0.694737 13.7534 1.18405 12.1155 2.16414 10.6608C3.14277 9.20447 4.5146 8.06913 6.27672 7.25018C8.03885 6.43117 10.0208 6.02246 12.2199 6.02246C14.5397 6.02246 16.6106 6.44734 18.4339 7.29558C20.2557 8.14382 21.6873 9.33343 22.7271 10.8644C23.6606 12.2415 24.2125 13.7695 24.3799 15.4514C24.4106 15.759 24.1659 16.0242 23.8586 16.0212L18.8577 15.9832C18.6043 15.9817 18.3931 15.7956 18.3494 15.5451C18.1266 14.2882 17.5222 13.2509 16.5349 12.4334C15.4339 11.5236 13.9965 11.0695 12.2184 11.0695C10.5917 11.0695 9.28108 11.4181 8.28641 12.1155C7.29177 12.8129 6.79517 13.8281 6.79517 15.1613C6.79517 16.0711 7.08933 16.7831 7.67624 17.2988C8.26311 17.8144 9.06845 18.2247 10.0937 18.5265C11.1175 18.8297 12.6553 19.1637 14.7043 19.5271H14.7494Z" fill="white"/>
<path fill-rule="evenodd" clip-rule="evenodd" d="M50.5634 33.2062H51.3489L51.3517 33.2077C51.6393 33.2077 51.8737 33.4424 51.8737 33.7333V37.63C51.8737 37.9194 51.6407 38.1557 51.3517 38.1557H47.3199C45.9171 38.1557 44.7827 37.0098 44.7827 35.5982V34.8216C44.7827 34.1748 43.9355 33.9519 43.6131 34.51C42.9506 35.4993 42.225 36.3099 41.3559 36.9419C40.3885 37.6462 39.4212 38.1409 38.231 38.3328C37.0937 38.5174 35.9299 38.4524 34.7955 38.2753C33.3107 38.0435 31.8699 37.5148 30.6637 36.5979C29.0558 35.3767 28.2526 33.6964 28.2526 31.5569C28.2526 29.0836 29.132 27.1744 30.8909 25.8292C32.6497 24.4856 35.2278 23.8137 38.6238 23.8137H42.8113C43.0986 23.8137 43.3331 23.579 43.3331 23.2881V22.5764C43.3331 20.301 41.5831 18.7728 39.1236 18.7728C37.8192 18.7728 36.8284 19.0548 35.9944 19.6203C35.2748 20.109 34.8087 20.7381 34.5976 21.5103C34.5361 21.7348 34.3279 21.8883 34.0963 21.8883H29.4736C29.1467 21.8883 28.9048 21.59 28.9591 21.2667C29.3123 19.1818 30.3456 17.5413 32.059 16.3438C33.938 15.0297 36.3315 14.3593 39.3948 14.3593C42.6398 14.3593 44.7109 15.099 46.4696 16.5491C48.2286 17.999 49.1077 20.115 49.1077 22.8953V31.6484C49.1077 32.1992 49.2369 32.5964 49.4949 32.84C49.7515 33.0851 50.109 33.2062 50.5634 33.2062ZM42.6252 31.4417C43.0942 30.6015 43.3302 29.6167 43.3302 28.4856V28.3705C43.3302 28.081 43.0971 27.8448 42.8084 27.8448H38.5301C37.104 27.8448 36.0061 28.1283 35.2322 28.6923C34.4598 29.2579 34.0729 30.0596 34.0729 31.0977C34.0729 32.0146 34.4217 32.747 35.1194 33.2977C35.8156 33.847 36.7405 34.1217 37.894 34.1217C39.8785 34.1217 41.6403 33.2032 42.6252 31.4417Z" fill="white"/>
<path d="M68.0282 6.48562H62.0456C58.8887 6.48562 56.3283 9.06855 56.3283 12.2564V14.7908C56.3283 15.0807 56.0949 15.3147 55.8091 15.3147H52.3929C52.1057 15.3147 51.8737 15.5502 51.8737 15.8387V19.7683C51.8737 20.0582 52.1071 20.2923 52.3929 20.2923H55.8091C56.0963 20.2923 56.3283 20.5278 56.3283 20.8162V37.9196C56.3283 38.2095 56.5618 38.4435 56.8475 38.4435H61.5106C61.7978 38.4435 62.0293 38.208 62.0293 37.9196V20.8162C62.0293 20.5262 62.2628 20.2923 62.5485 20.2923H67.9814C68.269 20.2923 68.5006 20.0567 68.5006 19.7683V15.8387C68.5006 15.5487 68.2676 15.3147 67.9814 15.3147H62.5485C62.2614 15.3147 62.0293 15.0793 62.0293 14.7908V12.5125C62.0293 11.9326 62.4948 11.4632 63.0691 11.4632H68.0282C68.3153 11.4632 68.5474 11.2277 68.5474 10.9392V7.00961C68.5474 6.71963 68.3139 6.48562 68.0282 6.48562Z" fill="white"/>
<path fill-rule="evenodd" clip-rule="evenodd" d="M86.8884 15.748C88.6656 16.6655 90.068 17.9804 91.0944 19.6912H91.0916C92.1175 21.4034 92.6316 23.3905 92.6316 25.6524C92.6316 25.9582 92.6242 26.295 92.6093 26.6614C92.6019 26.8638 92.5857 27.0618 92.5635 27.2554C92.5339 27.5198 92.306 27.7163 92.0392 27.7163H75.6318C75.3178 27.7163 75.0705 27.9881 75.1061 28.2984C75.1237 28.4491 75.146 28.5998 75.1696 28.749C75.2395 29.1759 75.34 29.5985 75.4795 30.0077C75.6096 30.3889 75.7726 30.7582 75.9723 31.1084C76.4789 31.9962 77.1677 32.6832 78.0412 33.1722C78.9152 33.6612 79.9341 33.9051 81.098 33.9051C82.5079 33.9051 83.6866 33.583 84.6375 32.9418C85.486 32.3671 86.0784 31.587 86.4132 30.5987C86.4855 30.3844 86.6856 30.2367 86.9134 30.2367H91.6719C92.0123 30.2367 92.2629 30.5543 92.186 30.8853C91.8896 32.1617 91.3343 33.3362 90.5214 34.4088C89.572 35.6631 88.3219 36.6485 86.7759 37.3665C85.2285 38.0845 83.4736 38.4435 81.5125 38.4435C78.9684 38.4435 76.7545 37.956 74.8704 36.9765C72.9853 35.9985 71.5384 34.5994 70.5269 32.7807C69.5172 30.9636 69.0105 28.9218 69.0105 26.4768C69.0105 24.0317 69.5005 21.8998 70.4811 20.0812C71.4616 18.2625 72.8404 16.8575 74.6175 15.8633C76.3947 14.869 78.4043 14.3593 80.7307 14.3593C83.0572 14.3593 85.1113 14.8305 86.8884 15.748ZM75.8893 23.7259H86.1645V23.7273C86.5021 23.7273 86.755 23.4141 86.6795 23.0847C86.3952 21.8319 85.8046 20.839 84.9112 20.1048C83.8705 19.2494 82.5523 18.821 80.9586 18.821C79.9786 18.821 79.0749 19.0189 78.2473 19.4164C77.421 19.8138 76.7471 20.387 76.2256 21.136C75.8213 21.7167 75.5369 22.3667 75.3725 23.0861C75.2988 23.4141 75.5517 23.7259 75.8893 23.7259Z" fill="white"/>
<path d="M108.897 6.64679C108.897 5.88966 109.529 5.27614 110.309 5.27614L114.087 5.27877C114.868 5.27877 115.5 4.66525 115.5 3.90812V1.37316C115.5 0.616045 114.899 0 114.119 0H109.71C108.929 0 108.297 0.61348 108.297 1.37059V3.32134C108.297 4.07848 107.665 4.69192 106.884 4.69192H104.871C104.09 4.69192 103.458 5.30543 103.458 6.06249V37.9375C103.458 38.6946 104.09 39.3081 104.871 39.3081H106.884C107.665 39.3081 108.297 39.9215 108.297 40.6787V42.6294C108.297 43.3865 108.929 44 109.71 44H114.119C114.899 44 115.5 43.384 115.5 42.6268V40.0919C115.5 39.3347 114.868 38.7212 114.087 38.7212L110.309 38.7239C109.529 38.7239 108.897 38.1103 108.897 37.3532V6.64679Z" fill="white"/>
<path d="M341.382 6.64679C341.382 5.88966 340.75 5.27614 339.969 5.27614L336.191 5.27877C335.411 5.27877 334.779 4.66525 334.779 3.90812V1.37316C334.779 0.616045 335.379 0 336.16 0H340.569C341.349 0 341.982 0.61348 341.982 1.37059V3.32134C341.982 4.07848 342.614 4.69192 343.394 4.69192H345.408C346.188 4.69192 346.821 5.30543 346.821 6.06249V37.9375C346.821 38.6946 346.188 39.3081 345.408 39.3081H343.394C342.614 39.3081 341.982 39.9215 341.982 40.6787V42.6294C341.982 43.3865 341.349 44 340.569 44H336.16C335.379 44 334.779 43.384 334.779 42.6268V40.0919C334.779 39.3347 335.411 38.7212 336.191 38.7212L339.969 38.7239C340.75 38.7239 341.382 38.1103 341.382 37.3532V6.64679Z" fill="white"/>
<path d="M305.942 37.3906V5.48451H317.656C320.209 5.48451 322.305 5.92512 323.946 6.80633C325.617 7.65716 326.863 8.82705 327.684 10.316C328.504 11.7746 328.914 13.4003 328.914 15.1931C328.914 17.1378 328.398 18.9154 327.365 20.5259C326.362 22.1364 324.782 23.3063 322.624 24.0356L329.233 37.3906H322.533L316.608 24.8105H311.776V37.3906H305.942ZM311.776 20.5259H317.291C319.236 20.5259 320.664 20.055 321.576 19.113C322.488 18.171 322.943 16.9251 322.943 15.3754C322.943 13.8561 322.488 12.6406 321.576 11.729C320.695 10.8174 319.251 10.3616 317.246 10.3616H311.776V20.5259Z" fill="white"/>
<path d="M279.591 37.3906V5.48451H300.421V10.1793H285.425V18.9306H299.054V23.4887H285.425V32.6958H300.421V37.3906H279.591Z" fill="white"/>
<path d="M246.741 37.3906V5.48451H252.575L267.571 27.9555V5.48451H273.406V37.3906H267.571L252.575 14.9652V37.3906H246.741Z" fill="white"/>
<path d="M213.891 37.3906V5.48451H219.726L234.722 27.9555V5.48451H240.556V37.3906H234.722L219.726 14.9652V37.3906H213.891Z" fill="white"/>
<path d="M179.881 37.3906L191.549 5.48451H198.113L209.781 37.3906H203.582L201.03 30.0066H188.587L185.988 37.3906H179.881ZM190.182 25.4486H199.435L194.785 12.1848L190.182 25.4486Z" fill="white"/>
<path d="M163.175 37.9375C159.954 37.9375 157.189 37.2538 154.879 35.8864C152.57 34.4886 150.792 32.559 149.546 30.0977C148.301 27.606 147.678 24.7345 147.678 21.4831C147.678 18.2317 148.301 15.3602 149.546 12.8684C150.792 10.3767 152.57 8.43198 154.879 7.03419C157.189 5.63639 159.954 4.9375 163.175 4.9375C167.004 4.9375 170.133 5.89468 172.564 7.80905C175.026 9.69302 176.56 12.3519 177.168 15.7856H170.741C170.346 14.0535 169.495 12.7013 168.189 11.7289C166.912 10.7262 165.211 10.2248 163.084 10.2248C160.136 10.2248 157.827 11.2276 156.156 13.2331C154.484 15.2386 153.649 17.9886 153.649 21.4831C153.649 24.9776 154.484 27.7276 156.156 29.7331C157.827 31.7082 160.136 32.6958 163.084 32.6958C165.211 32.6958 166.912 32.24 168.189 31.3284C169.495 30.3864 170.346 29.095 170.741 27.4541H177.168C176.56 30.7358 175.026 33.3035 172.564 35.1571C170.133 37.0107 167.004 37.9375 163.175 37.9375Z" fill="white"/>
<path d="M132.423 37.9375C130.083 37.9375 128.017 37.5425 126.224 36.7524C124.431 35.932 123.018 34.7773 121.985 33.2883C120.952 31.769 120.42 29.9306 120.39 27.7731H126.543C126.604 29.2621 127.136 30.5231 128.138 31.5563C129.171 32.559 130.584 33.0604 132.377 33.0604C133.927 33.0604 135.158 32.6958 136.069 31.9665C136.981 31.2068 137.437 30.2041 137.437 28.9582C137.437 27.6516 137.026 26.6336 136.206 25.9044C135.416 25.1751 134.352 24.5825 133.015 24.1267C131.678 23.6709 130.25 23.1847 128.731 22.6682C126.269 21.8173 124.386 20.7234 123.079 19.3864C121.803 18.0494 121.165 16.2718 121.165 14.0535C121.134 12.1695 121.575 10.559 122.486 9.22203C123.428 7.85463 124.705 6.80628 126.315 6.077C127.926 5.31733 129.779 4.9375 131.876 4.9375C134.003 4.9375 135.872 5.31733 137.482 6.077C139.123 6.83667 140.399 7.90021 141.311 9.26761C142.253 10.635 142.754 12.2607 142.815 14.1447H136.571C136.54 13.0204 136.1 12.0328 135.249 11.182C134.428 10.3008 133.274 9.86015 131.785 9.86015C130.508 9.82976 129.43 10.1488 128.548 10.8173C127.698 11.4555 127.272 12.3974 127.272 13.6433C127.272 14.7068 127.607 15.5577 128.275 16.1958C128.944 16.8035 129.855 17.3201 131.01 17.7455C132.165 18.1709 133.486 18.6267 134.975 19.1129C136.555 19.6599 137.999 20.298 139.305 21.0273C140.612 21.7566 141.66 22.7289 142.45 23.9444C143.241 25.1295 143.636 26.664 143.636 28.548C143.636 30.2193 143.21 31.769 142.359 33.1972C141.508 34.6253 140.247 35.78 138.576 36.6613C136.905 37.5121 134.854 37.9375 132.423 37.9375Z" fill="white"/>
</g>
<defs>
<clipPath id="clip0_6_14970">
<rect width="346.821" height="44" fill="white"/>
</clipPath>
</defs>
</svg>
