<svg width="20" height="20" viewBox="0 0 20 20" fill="none" xmlns="http://www.w3.org/2000/svg">
<rect width="20" height="20" rx="10" fill="url(#paint0_linear_7_15096)"/>
<path d="M13.2325 12.3833L16.3951 10.5792C16.5627 10.4834 16.6663 10.3057 16.6663 10.1149V6.50684C16.6663 6.31611 16.5627 6.1384 16.3951 6.04257L13.2325 4.23852C13.0648 4.14269 12.8567 4.14362 12.69 4.23852L9.52735 6.04257C9.35971 6.1384 9.25611 6.31611 9.25611 6.50684V12.9545L7.03812 14.2189L4.82014 12.9545V10.4248L7.03812 9.16035L8.50077 9.99492V8.29786L7.30937 7.61774C7.22743 7.57122 7.13325 7.5461 7.03812 7.5461C6.943 7.5461 6.84882 7.57122 6.76688 7.61774L3.60425 9.42179C3.43661 9.51762 3.33301 9.69533 3.33301 9.88606V13.4942C3.33301 13.6849 3.43661 13.8626 3.60425 13.9584L6.76688 15.7625C6.93452 15.8574 7.14172 15.8574 7.30937 15.7625L10.472 13.9584C10.6396 13.8626 10.7432 13.6849 10.7432 13.4942V7.04554L10.7828 7.02321L12.9603 5.78112L15.1783 7.04554V9.57531L12.9603 10.8397L11.4995 10.007V11.7041L12.689 12.3823C12.8567 12.4772 13.0648 12.4772 13.2315 12.3823L13.2325 12.3833Z" fill="white"/>
<defs>
<linearGradient id="paint0_linear_7_15096" x1="22.6667" y1="5.75" x2="2.80484" y2="23.405" gradientUnits="userSpaceOnUse">
<stop stop-color="#7B3FE4"/>
<stop offset="1" stop-color="#A626C2"/>
</linearGradient>
</defs>
</svg>
