<svg width="9" height="15" viewBox="0 0 9 15" fill="none" xmlns="http://www.w3.org/2000/svg">
<path d="M4.45935 0.777344L0.23645 7.8718L4.45935 10.4055L8.68224 7.8718L4.45935 0.777344ZM0.23645 8.71638L4.45935 14.6284L8.68224 8.71638L4.45935 11.2501L0.23645 8.71638Z" fill="#1976D2"/>
<path d="M0 8.56055L4.45934 11.3685V15" fill="#53D3E0"/>
<path d="M8.91869 8.56055L4.45935 11.3685V15" fill="#5A9DED"/>
<path d="M0 7.65289L4.45934 5.14794V0L0 7.65289Z" fill="#FFE94D"/>
<path d="M4.45934 10.4608V5.14795L0 7.6529L4.45934 10.4608Z" fill="#A7DF7E"/>
<path d="M4.45935 0V5.14794L8.91869 7.65289L4.45935 0Z" fill="#FF9C92"/>
<path d="M4.45935 5.14795V10.4608L8.91869 7.6529L4.45935 5.14795Z" fill="#D797D1"/>
</svg>
