<svg width="16" height="16" viewBox="0 0 16 16" fill="none" xmlns="http://www.w3.org/2000/svg">
<path d="M7.99967 1.16699L3.83301 8.16699L7.99967 10.667L12.1663 8.16699L7.99967 1.16699ZM3.83301 9.00033L7.99967 14.8337L12.1663 9.00033L7.99967 11.5003L3.83301 9.00033Z" fill="#1976D2"/>
<path d="M3.59961 8.84668L7.99957 11.6172V15.2004" fill="#53D3E0"/>
<path d="M12.4 8.84668L8 11.6172V15.2004" fill="#5A9DED"/>
<path d="M3.59961 7.95041L7.99957 5.47881V0.399414L3.59961 7.95041Z" fill="#FFE94D"/>
<path d="M7.99957 10.7217V5.47949L3.59961 7.95109L7.99957 10.7217Z" fill="#A7DF7E"/>
<path d="M8 0.399414V5.47881L12.4 7.95041L8 0.399414Z" fill="#FF9C92"/>
<path d="M8 5.47949V10.7217L12.4 7.95109L8 5.47949Z" fill="#D797D1"/>
</svg>
