<svg width="32" height="32" viewBox="0 0 32 32" fill="none" xmlns="http://www.w3.org/2000/svg">
<rect width="32" height="32" rx="16" fill="#76FB8E"/>
<path d="M11.6994 12.4788C11.6994 11.9485 12.1163 11.5188 12.6307 11.5188H19.4793C19.9938 11.5188 20.4106 11.0891 20.4106 10.5588V8.78324C20.4106 8.25294 19.9938 7.82324 19.4793 7.82324H12.2337C11.7193 7.82324 11.3024 8.25294 11.3024 8.78324V10.1514C11.3024 10.6817 10.8856 11.1114 10.3711 11.1114H9.04557C8.53112 11.1114 8.11426 11.5411 8.11426 12.0714V15.0674C8.11426 15.5977 8.53286 16.0058 9.04732 16.0058H10.7698C11.2843 16.0058 11.7012 15.5762 11.7012 15.0458L11.6994 12.4788Z" fill="#131313"/>
<path d="M23.0692 16.0061H21.3467C20.8322 16.0061 20.4153 16.4358 20.4153 16.9661V19.5432C20.4153 20.0735 19.9985 20.5032 19.484 20.5032H12.6313C12.1168 20.5032 11.6999 20.9329 11.6999 21.4632V23.2388C11.6999 23.769 12.1168 24.1987 12.6313 24.1987H19.8807C20.3951 24.1987 20.806 23.769 20.806 23.2388V21.8142C20.806 21.2839 21.2229 20.9077 21.7374 20.9077H23.0688C23.5833 20.9077 24.0001 20.478 24.0001 19.9477V16.9549C24.0001 16.4247 23.5836 16.0061 23.0692 16.0061Z" fill="#131313"/>
<path d="M16.9014 14.1398H15.2469C14.708 14.1398 14.2702 14.5907 14.2702 15.1465V16.852C14.2702 17.4074 14.7077 17.8586 15.2469 17.8586H16.9014C17.4403 17.8586 17.8781 17.4077 17.8781 16.852V15.1465C17.8781 14.591 17.4406 14.1398 16.9014 14.1398Z" fill="#131313"/>
</svg>
