<svg width="25" height="24" viewBox="0 0 25 24" fill="none" xmlns="http://www.w3.org/2000/svg">
<path d="M20.667 11H23.667V13H20.667V11ZM1.66699 11H4.66699V13H1.66699V11ZM13.667 1V4H11.667V1H13.667ZM5.58699 3.5L7.71699 5.64L6.29699 7.05L4.16699 4.93L5.58699 3.5ZM17.617 5.63L19.737 3.5L21.167 4.93L19.037 7.05L17.617 5.63ZM12.667 6C14.2583 6 15.7844 6.63214 16.9096 7.75736C18.0349 8.88258 18.667 10.4087 18.667 12C18.667 14.22 17.457 16.16 15.667 17.2V19C15.667 19.2652 15.5616 19.5196 15.3741 19.7071C15.1866 19.8946 14.9322 20 14.667 20H10.667C10.4018 20 10.1474 19.8946 9.95989 19.7071C9.77235 19.5196 9.66699 19.2652 9.66699 19V17.2C7.87699 16.16 6.66699 14.22 6.66699 12C6.66699 10.4087 7.29913 8.88258 8.42435 7.75736C9.54957 6.63214 11.0757 6 12.667 6ZM14.667 21V22C14.667 22.2652 14.5616 22.5196 14.3741 22.7071C14.1866 22.8946 13.9322 23 13.667 23H11.667C11.4018 23 11.1474 22.8946 10.9599 22.7071C10.7723 22.5196 10.667 22.2652 10.667 22V21H14.667ZM11.667 18H13.667V15.87C15.397 15.43 16.667 13.86 16.667 12C16.667 10.9391 16.2456 9.92172 15.4954 9.17157C14.7453 8.42143 13.7279 8 12.667 8C11.6061 8 10.5887 8.42143 9.83856 9.17157C9.08842 9.92172 8.66699 10.9391 8.66699 12C8.66699 13.86 9.93699 15.43 11.667 15.87V18Z" fill="#13FF75"/>
</svg>
