<svg width="25" height="24" viewBox="0 0 25 24" fill="none" xmlns="http://www.w3.org/2000/svg">
<path d="M18.333 15.0003C19.1287 15.0003 19.8917 15.3164 20.4543 15.879C21.0169 16.4416 21.333 17.2047 21.333 18.0003C21.333 18.796 21.0169 19.559 20.4543 20.1216C19.8917 20.6842 19.1287 21.0003 18.333 21.0003C17.023 21.0003 15.913 20.1703 15.503 19.0003H14.333V17.0003H15.503C15.913 15.8303 17.023 15.0003 18.333 15.0003ZM18.333 17.0003C18.0678 17.0003 17.8134 17.1057 17.6259 17.2932C17.4384 17.4807 17.333 17.7351 17.333 18.0003C17.333 18.2655 17.4384 18.5199 17.6259 18.7074C17.8134 18.895 18.0678 19.0003 18.333 19.0003C18.5982 19.0003 18.8526 18.895 19.0401 18.7074C19.2277 18.5199 19.333 18.2655 19.333 18.0003C19.333 17.7351 19.2277 17.4807 19.0401 17.2932C18.8526 17.1057 18.5982 17.0003 18.333 17.0003ZM18.333 8.00031C18.7123 8.00031 19.076 7.84965 19.3442 7.58148C19.6123 7.3133 19.763 6.94957 19.763 6.57031C19.763 5.78031 19.123 5.14031 18.333 5.14031C17.543 5.14031 16.903 5.78031 16.903 6.57031C16.903 6.94957 17.0537 7.3133 17.3218 7.58148C17.59 7.84965 17.9537 8.00031 18.333 8.00031ZM18.333 2.57031C19.3939 2.57031 20.4113 2.99174 21.1614 3.74189C21.9116 4.49203 22.333 5.50945 22.333 6.57031C22.333 9.56031 18.333 14.0003 18.333 14.0003C18.333 14.0003 14.333 9.56031 14.333 6.57031C14.333 5.50945 14.7544 4.49203 15.5046 3.74189C16.2547 2.99174 17.2721 2.57031 18.333 2.57031ZM9.16301 17.0003H10.333V19.0003H9.16301C8.75301 20.1703 7.64301 21.0003 6.33301 21.0003C5.53736 21.0003 4.7743 20.6842 4.21169 20.1216C3.64908 19.559 3.33301 18.796 3.33301 18.0003C3.33301 16.6903 4.16301 15.5803 5.33301 15.1703V14.0003H7.33301V15.1703C8.18301 15.4703 8.86301 16.1503 9.16301 17.0003ZM6.33301 17.0003C6.06779 17.0003 5.81344 17.1057 5.6259 17.2932C5.43836 17.4807 5.33301 17.7351 5.33301 18.0003C5.33301 18.2655 5.43836 18.5199 5.6259 18.7074C5.81344 18.895 6.06779 19.0003 6.33301 19.0003C6.59822 19.0003 6.85258 18.895 7.04011 18.7074C7.22765 18.5199 7.33301 18.2655 7.33301 18.0003C7.33301 17.7351 7.22765 17.4807 7.04011 17.2932C6.85258 17.1057 6.59822 17.0003 6.33301 17.0003ZM6.33301 3.00031C7.12866 3.00031 7.89172 3.31638 8.45433 3.87899C9.01694 4.4416 9.33301 5.20466 9.33301 6.00031C9.33301 7.31031 8.50301 8.42031 7.33301 8.83031V10.0003H5.33301V8.83031C4.16301 8.42031 3.33301 7.31031 3.33301 6.00031C3.33301 5.20466 3.64908 4.4416 4.21169 3.87899C4.7743 3.31638 5.53736 3.00031 6.33301 3.00031ZM6.33301 5.00031C6.06779 5.00031 5.81344 5.10567 5.6259 5.29321C5.43836 5.48074 5.33301 5.7351 5.33301 6.00031C5.33301 6.26553 5.43836 6.51988 5.6259 6.70742C5.81344 6.89496 6.06779 7.00031 6.33301 7.00031C6.59822 7.00031 6.85258 6.89496 7.04011 6.70742C7.22765 6.51988 7.33301 6.26553 7.33301 6.00031C7.33301 5.7351 7.22765 5.48074 7.04011 5.29321C6.85258 5.10567 6.59822 5.00031 6.33301 5.00031ZM11.333 19.0003V17.0003H13.333V19.0003H11.333ZM7.33301 13.0003H5.33301V11.0003H7.33301V13.0003Z" fill="white"/>
</svg>
