<svg width="35" height="13" viewBox="0 0 35 13" fill="none" xmlns="http://www.w3.org/2000/svg">
<path d="M5.57295 5.49847C6.3697 5.64487 7.04431 5.82707 7.59677 6.04558L7.59731 6.04667C8.14921 6.26521 8.59602 6.60195 8.93772 7.05635C9.27887 7.51076 9.45 8.10777 9.45 8.84848C9.45 9.5442 9.25356 10.1694 8.86069 10.7247C8.46781 11.28 7.92416 11.7148 7.22974 12.0288C6.53534 12.3427 5.74957 12.5 4.87303 12.5C3.92826 12.5 3.09132 12.3287 2.3628 11.9865C1.63427 11.6443 1.06201 11.1731 0.646573 10.5728C0.269652 10.0284 0.0539549 9.41678 0.000580805 8.73786C-0.00822314 8.62507 0.0842186 8.52965 0.19922 8.53128L2.08658 8.55947C2.18453 8.56055 2.26485 8.63321 2.27806 8.72866C2.3551 9.28065 2.61097 9.73235 3.04621 10.0848C3.52438 10.472 4.15056 10.6656 4.92476 10.6656C5.5735 10.6656 6.10285 10.5251 6.51276 10.2448C6.9227 9.96444 7.1274 9.5778 7.1274 9.08382C7.1274 8.73623 7.01349 8.46132 6.78569 8.25907C6.5579 8.05734 6.2481 7.9001 5.85522 7.78785C5.46235 7.6756 4.86754 7.54655 4.07076 7.40069L3.98549 7.38387C3.23384 7.24885 2.5906 7.06666 2.05576 6.83675C1.52037 6.60681 1.08787 6.26736 0.757722 5.81841C0.427574 5.36941 0.2625 4.7751 0.2625 4.0344C0.2625 3.36145 0.447382 2.75521 0.8177 2.21678C1.18747 1.67776 1.7058 1.25753 2.3716 0.954415C3.03741 0.651277 3.78628 0.5 4.61717 0.5C5.49371 0.5 6.27617 0.657261 6.96507 0.971219C7.65343 1.28518 8.19434 1.72549 8.58722 2.29213C8.93993 2.80186 9.14846 3.36741 9.21174 3.98993C9.2233 4.10379 9.13085 4.20195 9.01476 4.20084L7.1252 4.18676C7.02945 4.18622 6.94967 4.11735 6.93317 4.02462C6.84898 3.55939 6.62062 3.17547 6.24755 2.87288C5.83156 2.53613 5.28846 2.36805 4.61662 2.36805C4.00199 2.36805 3.50677 2.49711 3.13094 2.75521C2.75513 3.01334 2.56749 3.38911 2.56749 3.88255C2.56749 4.2193 2.67864 4.48283 2.9004 4.6737C3.12214 4.86456 3.42643 5.01641 3.81381 5.12811C4.20063 5.24036 4.78168 5.36397 5.55588 5.49847H5.57295Z" fill="#76FB8E"/>
<path fill-rule="evenodd" clip-rule="evenodd" d="M19.1049 10.5615H19.4017L19.4028 10.5621C19.5114 10.5621 19.6 10.6489 19.6 10.7566V12.1989C19.6 12.306 19.512 12.3935 19.4028 12.3935H17.8794C17.3494 12.3935 16.9207 11.9693 16.9207 11.4469V11.1594C16.9207 10.92 16.6006 10.8375 16.4788 11.0441C16.2285 11.4103 15.9543 11.7103 15.6259 11.9442C15.2604 12.2049 14.8949 12.388 14.4453 12.459C14.0155 12.5274 13.5758 12.5033 13.1472 12.4377C12.5862 12.3519 12.0418 12.1563 11.586 11.8169C10.9785 11.3649 10.675 10.743 10.675 9.95105C10.675 9.03562 11.0073 8.32896 11.6718 7.83108C12.3364 7.33377 13.3105 7.08508 14.5937 7.08508H16.1759C16.2844 7.08508 16.373 6.99819 16.373 6.89053V6.62711C16.373 5.78493 15.7118 5.21927 14.7825 5.21927C14.2896 5.21927 13.9153 5.32367 13.6002 5.53297C13.3282 5.71386 13.1521 5.94669 13.0724 6.23252C13.0491 6.3156 12.9705 6.37241 12.883 6.37241H11.1363C11.0128 6.37241 10.9214 6.26203 10.9419 6.14235C11.0754 5.37065 11.4658 4.76347 12.1132 4.32023C12.8232 3.83384 13.7275 3.58571 14.885 3.58571C16.1111 3.58571 16.8936 3.85951 17.5581 4.39621C18.2227 4.93289 18.5549 5.71606 18.5549 6.74515V9.98493C18.5549 10.1888 18.6037 10.3358 18.7012 10.426C18.7981 10.5167 18.9332 10.5615 19.1049 10.5615ZM16.1055 9.90842C16.2828 9.59743 16.3719 9.23292 16.3719 8.81429V8.77166C16.3719 8.66454 16.2839 8.57711 16.1748 8.57711H14.5582C14.0194 8.57711 13.6046 8.68203 13.3122 8.89079C13.0203 9.10012 12.8741 9.39688 12.8741 9.78108C12.8741 10.1205 13.0059 10.3915 13.2695 10.5954C13.5326 10.7987 13.882 10.9003 14.3179 10.9003C15.0677 10.9003 15.7334 10.5604 16.1055 9.90842Z" fill="#76FB8E"/>
<path d="M25.7038 0.671429H23.4433C22.2506 0.671429 21.2831 1.62745 21.2831 2.80738V3.74542C21.2831 3.85273 21.195 3.93935 21.087 3.93935H19.7962C19.6877 3.93935 19.6 4.02651 19.6 4.13327V5.58774C19.6 5.69505 19.6882 5.78168 19.7962 5.78168H21.087C21.1955 5.78168 21.2831 5.86884 21.2831 5.97561V12.3061C21.2831 12.4134 21.3713 12.5 21.4793 12.5H23.2412C23.3497 12.5 23.4372 12.4128 23.4372 12.3061V5.97561C23.4372 5.86828 23.5254 5.78168 23.6334 5.78168H25.6861C25.7948 5.78168 25.8823 5.6945 25.8823 5.58774V4.13327C25.8823 4.02596 25.7943 3.93935 25.6861 3.93935H23.6334C23.5249 3.93935 23.4372 3.85219 23.4372 3.74542V2.90216C23.4372 2.68754 23.6131 2.51376 23.8301 2.51376H25.7038C25.8123 2.51376 25.9 2.4266 25.9 2.31982V0.865374C25.9 0.758043 25.8118 0.671429 25.7038 0.671429Z" fill="#76FB8E"/>
<path fill-rule="evenodd" clip-rule="evenodd" d="M32.83 4.09973C33.5015 4.4393 34.0314 4.92598 34.4192 5.55919H34.4181C34.8057 6.19295 35 6.92843 35 7.76562C35 7.87882 34.9972 8.00347 34.9916 8.1391C34.9888 8.21401 34.9827 8.28728 34.9743 8.35893C34.9631 8.4568 34.877 8.52952 34.7762 8.52952H28.5768C28.4582 8.52952 28.3647 8.63013 28.3782 8.74498C28.3848 8.80077 28.3932 8.85654 28.4022 8.91176C28.4286 9.06978 28.4665 9.22618 28.5192 9.37764C28.5684 9.51873 28.63 9.65544 28.7054 9.78504C28.8969 10.1137 29.1571 10.3679 29.4872 10.5489C29.8174 10.7299 30.2024 10.8202 30.6422 10.8202C31.1749 10.8202 31.6202 10.701 31.9795 10.4636C32.3001 10.2509 32.5239 9.9622 32.6505 9.59639C32.6777 9.5171 32.7533 9.4624 32.8395 9.4624H34.6374C34.766 9.4624 34.8607 9.57998 34.8316 9.70246C34.7197 10.1749 34.5098 10.6096 34.2027 11.0066C33.8439 11.4709 33.3716 11.8356 32.7875 12.1014C32.2028 12.3671 31.5397 12.5 30.7988 12.5C29.8375 12.5 29.001 12.3196 28.2891 11.957C27.5768 11.595 27.0302 11.0772 26.6479 10.404C26.2665 9.73145 26.075 8.97573 26.075 8.07075C26.075 7.16575 26.2601 6.37668 26.6306 5.70356C27.0011 5.03041 27.5221 4.51039 28.1936 4.14238C28.865 3.77437 29.6243 3.58571 30.5034 3.58571C31.3824 3.58571 32.1585 3.76014 32.83 4.09973ZM28.6741 7.05256H32.5565V7.0531C32.6841 7.0531 32.7796 6.93717 32.7511 6.81523C32.6436 6.35155 32.4205 5.98406 32.0829 5.71231C31.6897 5.3957 31.1916 5.23712 30.5895 5.23712C30.2192 5.23712 29.8777 5.31038 29.565 5.45749C29.2528 5.60458 28.9982 5.81676 28.8011 6.09399C28.6484 6.3089 28.5409 6.54949 28.4788 6.81578C28.451 6.93717 28.5465 7.05256 28.6741 7.05256Z" fill="#76FB8E"/>
</svg>
